<svg preserveAspectRatio="none" width="100%" height="100%" overflow="visible" style="display: block;" viewBox="0 0 39.0625 45.3045" fill="none" xmlns="http://www.w3.org/2000/svg">
<path id="Union" d="M37.3162 4.66325C38.346 4.93804 39.0625 5.87078 39.0625 6.93665V31.0231C39.0625 31.794 38.6848 32.516 38.0516 32.9558L20.8733 44.8842C20.0663 45.4446 18.9962 45.4446 18.1892 44.8842L1.0109 32.9558C0.377665 32.516 0 31.794 0 31.0231V6.93665C0 5.87079 0.716492 4.93804 1.74633 4.66325L18.9247 0.0795399C19.3221 -0.0265137 19.7405 -0.0265132 20.1379 0.0795409L37.3162 4.66325ZM9.21415 10.3997C8.18432 10.6745 7.46783 11.6072 7.46783 12.6731V27.117C7.46783 27.8879 7.8455 28.61 8.47874 29.0497L18.1892 35.7925C18.9962 36.3529 20.0663 36.3529 20.8733 35.7925L30.5838 29.0497C31.217 28.61 31.5947 27.8879 31.5947 27.117V12.6731C31.5947 11.6072 30.8782 10.6745 29.8483 10.3997L20.1379 7.80862C19.7404 7.70257 19.3221 7.70257 18.9246 7.80862L9.21415 10.3997ZM21.8422 21.1716H23.1728C24.2745 21.1716 24.7718 22.5503 23.9238 23.2536L18.1133 28.073C17.2698 28.7727 16.012 28.0405 16.2039 26.9615L17.2417 21.1262H15.876C14.7751 21.1262 14.2773 19.7491 15.1237 19.0452L20.9513 14.1986C21.7927 13.4988 23.0501 14.2265 22.8626 15.3047L21.8422 21.1716Z" fill="url(#paint0_linear_0_79)"/>
<defs>
<linearGradient id="paint0_linear_0_79" x1="19.5312" y1="-0.0823233" x2="19.5313" y2="45.8161" gradientUnits="userSpaceOnUse">
<stop stop-color="#00C9FE"/>
<stop offset="1" stop-color="#00AEFE"/>
</linearGradient>
</defs>
</svg>
