<svg preserveAspectRatio="none" width="100%" height="100%" overflow="visible" style="display: block;" viewBox="0 0 10 10" fill="none" xmlns="http://www.w3.org/2000/svg">
<g id="Frame" clip-path="url(#clip0_0_269)">
<path id="Vector" opacity="0.9" d="M8.88889 5.68333V2.22222C8.88889 2.14927 8.87452 2.07702 8.8466 2.00962C8.81868 1.94222 8.77776 1.88097 8.72617 1.82938C8.67458 1.7778 8.61334 1.73687 8.54593 1.70896C8.47853 1.68104 8.40629 1.66667 8.33333 1.66667H1.66667C1.59371 1.66667 1.52147 1.68104 1.45406 1.70896C1.38666 1.73687 1.32542 1.7778 1.27383 1.82938C1.22224 1.88097 1.18132 1.94222 1.1534 2.00962C1.12548 2.07702 1.11111 2.14927 1.11111 2.22222V7.68333L5.81111 4.86667C6.07033 4.71093 6.36704 4.62865 6.66944 4.62865C6.97185 4.62865 7.26856 4.71093 7.52778 4.86667L8.88889 5.68333ZM8.88889 6.97778L6.95 5.81667C6.86554 5.76791 6.76974 5.74224 6.67222 5.74224C6.5747 5.74224 6.4789 5.76791 6.39444 5.81667L2.18333 8.33333H8.33333C8.40629 8.33333 8.47853 8.31896 8.54593 8.29104C8.61334 8.26312 8.67458 8.2222 8.72617 8.17061C8.77776 8.11903 8.81868 8.05778 8.8466 7.99038C8.87452 7.92298 8.88889 7.85073 8.88889 7.77778V6.97778ZM1.66667 0.555555H8.33333C8.5522 0.555555 8.76893 0.598665 8.97114 0.682423C9.17335 0.76618 9.35708 0.888946 9.51184 1.04371C9.66661 1.19847 9.78937 1.38221 9.87313 1.58442C9.95689 1.78663 10 2.00335 10 2.22222V7.77778C10 8.2198 9.8244 8.64373 9.51184 8.95629C9.19928 9.26885 8.77536 9.44444 8.33333 9.44444H1.66667C1.22464 9.44444 0.800716 9.26885 0.488155 8.95629C0.175594 8.64373 -4.76837e-07 8.2198 -4.76837e-07 7.77778V2.22222C-4.76837e-07 1.78019 0.175594 1.35627 0.488155 1.04371C0.800716 0.73115 1.22464 0.555555 1.66667 0.555555ZM3.05556 4.44444C2.89074 4.44444 2.72962 4.39557 2.59258 4.304C2.45554 4.21243 2.34873 4.08229 2.28566 3.93001C2.22258 3.77774 2.20608 3.61019 2.23823 3.44854C2.27039 3.28688 2.34976 3.1384 2.4663 3.02185C2.58284 2.90531 2.73133 2.82594 2.89298 2.79379C3.05463 2.76164 3.22219 2.77814 3.37446 2.84121C3.52673 2.90428 3.65688 3.01109 3.74845 3.14814C3.84001 3.28518 3.88889 3.44629 3.88889 3.61111C3.88889 3.83212 3.80109 4.04409 3.64481 4.20037C3.48853 4.35665 3.27657 4.44444 3.05556 4.44444Z" fill="var(--fill-0, white)" fill-opacity="0.9"/>
</g>
<defs>
<clipPath id="clip0_0_269">
<rect width="10" height="10" fill="white"/>
</clipPath>
</defs>
</svg>
