<svg preserveAspectRatio="none" width="100%" height="100%" overflow="visible" style="display: block;" viewBox="0 0 42.7749 41.5357" fill="none" xmlns="http://www.w3.org/2000/svg">
<g opacity="0.05">
<path id="Vector" d="M10.295 23.3146L18.215 31.2369L15.0497 34.4043L18.219 37.5752L15.0504 40.7437L9.50637 35.1978L3.16852 41.5357L0 38.3672L6.33785 32.0294L0.792142 26.4853L3.96064 23.3168L7.1284 26.4828L10.295 23.3146ZM1.22319 0L9.16788 0.00750563L35.6443 26.484L38.8141 23.3168L41.9828 26.4853L36.4379 32.0303L42.7749 38.3672L39.6064 41.5357L33.2694 35.1987L27.7245 40.7437L24.556 37.5752L27.7231 34.4052L1.22933 7.91152L1.22319 0ZM33.6142 0.000223817L41.5518 0.00750563L41.556 7.90099L32.4756 16.9785L24.5533 9.05846L33.6142 0.000223817Z" fill="var(--fill-0, #29344A)"/>
</g>
</svg>
