<svg preserveAspectRatio="none" width="100%" height="100%" overflow="visible" style="display: block;" viewBox="0 0 57 42" fill="none" xmlns="http://www.w3.org/2000/svg">
<g id="Frame" opacity="0.05" clip-path="url(#clip0_0_279)">
<path id="Vector" d="M12.9114 10.2235C7.45766 5.96904 4.27022 3.71412 3.35366 3.47016C1.97654 3.10536 -0.437975 3.47928 2.61495 7.48068C4.65098 10.1483 7.64918 12.4169 11.605 14.2842L12.9114 10.2235ZM15.0774 11.6371L39.063 28.5251L35.6339 46.8608C30.4127 47.1276 26.9927 46.2224 25.3762 44.1431C23.7574 42.066 24.6466 39.7222 28.0438 37.1161C28.0438 37.1161 28.3561 36.0217 28.3561 35.2716C28.3561 33.6186 27.5239 32.7134 27.5239 32.7134L12.745 18.8784L15.0797 11.6326L15.0774 11.6371ZM3.27842 29.5602C3.27842 29.5602 9.8015 30.3035 15.6657 26.6076L21.7647 32.5926C21.7647 32.5926 4.3523 41.0628 2.61495 38.6506C1.45899 37.0454 1.68014 34.0153 3.27614 29.5625L3.27842 29.5602ZM39.6558 30.6181C49.2774 36.6943 54.2889 42.0728 54.6856 46.756C55.2807 53.7784 41.7967 59.6608 41.7648 55.5362C41.7329 51.4117 38.2787 39.0974 38.2787 39.0974L39.6535 30.6204H39.6558V30.6181ZM35.187 4.5942C28.363 4.91568 22.7838 9.8724 21.7282 16.2838L19.6557 14.8246C21.3451 7.9116 27.6129 2.70864 35.1893 2.4054V0H36.9267V2.42364C45.1027 2.90928 51.6851 9.09036 52.4945 16.9336H54.4097V18.6208H52.5789C52.5675 24.9227 48.8305 30.3719 43.3882 33.0326L41.6987 31.236C46.7079 29.0905 50.2122 24.2524 50.2647 18.6185H43.2354C42.8068 21.7854 40.1825 24.2843 36.8902 24.624V26.8333L35.1483 25.4425V24.608C31.9631 24.1908 29.4437 21.7535 29.0082 18.6709H25.4651L23.1076 16.986H28.9809C29.3274 13.7849 31.9107 11.2244 35.187 10.814V4.59648V4.5942ZM36.8902 22.6358C39.0585 22.3166 40.7776 20.6933 41.1766 18.6162H38.5523V16.929H41.1925C40.8483 14.8018 39.1132 13.1282 36.9289 12.7931V15.3854H35.1893V12.809C33.037 13.1944 31.3635 14.8679 31.042 16.9746H33.5317V18.6641H31.083C31.4797 20.6545 33.0963 22.2163 35.1505 22.5948V20.2168H36.8902V22.6381V22.6358ZM50.1757 16.929C49.4074 10.3056 43.8419 5.0844 36.9289 4.6056V10.7958C40.2486 11.156 42.882 13.7096 43.2537 16.929H50.1757ZM35.5951 18.2218C35.5951 17.992 35.6864 17.7716 35.8489 17.6091C36.0114 17.4466 36.2318 17.3554 36.4615 17.3554C36.6913 17.3554 36.9117 17.4466 37.0742 17.6091C37.2367 17.7716 37.3279 17.992 37.3279 18.2218C37.3279 18.4515 37.2367 18.6719 37.0742 18.8344C36.9117 18.9969 36.6913 19.0882 36.4615 19.0882C36.2318 19.0882 36.0114 18.9969 35.8489 18.8344C35.6864 18.6719 35.5951 18.4515 35.5951 18.2218Z" fill="var(--fill-0, #29344A)"/>
</g>
<defs>
<clipPath id="clip0_0_279">
<rect width="57" height="42" fill="white"/>
</clipPath>
</defs>
</svg>
