<svg preserveAspectRatio="none" width="100%" height="100%" overflow="visible" style="display: block;" viewBox="0 0 57 42" fill="none" xmlns="http://www.w3.org/2000/svg">
<g id="Frame" opacity="0.05" clip-path="url(#clip0_0_266)">
<path id="Vector" d="M56.0822 15.7807C52.7345 19.9534 50.958 26.3706 47.4617 25.2642V41.0701C47.4617 41.0701 46.8295 50.5537 42.5619 50.5537H14.0322C9.86896 50.5537 9.52755 41.0701 9.52755 41.0701V25.2642C5.05765 26.6077 4.17884 19.9724 0.90702 15.7807C-2.3648 11.589 4.04607 3.40784 6.9828 1.36256C8.62408 0.241894 10.6303 -0.212176 12.5942 0.092534C14.5581 0.397244 16.3324 1.4379 17.5569 3.00321C18.8445 4.58866 20.4654 5.8711 22.3045 6.75943C24.1436 7.64776 26.1557 8.12017 28.198 8.1431C30.2403 8.16604 32.2625 7.73893 34.1211 6.89212C35.9797 6.04532 37.629 4.79959 38.9518 3.24346C40.2347 1.68003 42.0515 0.647625 44.0513 0.345767C46.051 0.043909 48.0917 0.494025 49.7788 1.60913C52.7851 3.64493 59.4331 11.6079 56.0822 15.7807ZM31.7917 21.4708L28.4725 15.7965L25.1533 21.4708L18.989 23.0324L23.0985 28.0903L22.6085 34.7288L28.4693 32.1999L34.3302 34.7288L33.8402 28.0903L37.9497 23.0324L31.7917 21.4708Z" fill="var(--fill-0, #29344A)"/>
</g>
<defs>
<clipPath id="clip0_0_266">
<rect width="57" height="42" fill="white"/>
</clipPath>
</defs>
</svg>
