<svg preserveAspectRatio="none" width="100%" height="100%" overflow="visible" style="display: block;" viewBox="0 0 18.6209 18.6209" fill="none" xmlns="http://www.w3.org/2000/svg">
<path id="Vector" d="M14.6951 13.3987L18.6209 17.3245L17.3245 18.6209L13.3987 14.6951C11.9872 15.8244 10.197 16.5 8.25 16.5C3.696 16.5 0 12.804 0 8.25C0 3.696 3.696 0 8.25 0C12.804 0 16.5 3.696 16.5 8.25C16.5 10.197 15.8244 11.9872 14.6951 13.3987ZM12.856 12.7186C13.9769 11.5634 14.6667 9.98763 14.6667 8.25C14.6667 4.70479 11.7952 1.83333 8.25 1.83333C4.70479 1.83333 1.83333 4.70479 1.83333 8.25C1.83333 11.7952 4.70479 14.6667 8.25 14.6667C9.98763 14.6667 11.5634 13.9769 12.7186 12.856L12.856 12.7186Z" fill="var(--fill-0, white)"/>
</svg>
